<?xml version="1.0" encoding="utf-8"?>
<!-- Generator: Adobe Illustrator 23.0.6, SVG Export Plug-In . SVG Version: 6.00 Build 0)  -->
<svg version="1.1" id="Capa_1" xmlns="http://www.w3.org/2000/svg" xmlns:xlink="http://www.w3.org/1999/xlink" x="0px" y="0px"
	 viewBox="0 0 46 38.8" style="enable-background:new 0 0 46 38.8;" xml:space="preserve">
<style type="text/css">
	.st0{fill:#FFFFFF;}
</style>
<g id="XMLID_1297_">
	<g id="XMLID_86_">
		<path id="XMLID_1440_" class="st0" d="M11.1,20.5V11c0-0.5-0.4-0.9-0.9-0.9h0V1.6c0-0.5-0.3-1-0.7-1.3s-1-0.4-1.5-0.2l-4,1.6
			c-0.6,0.2-1,0.8-1,1.5v6.9h0c-0.5,0-0.9,0.4-0.9,0.9v9.6C0.9,20.7,0,21.8,0,23.1v14.9c0,0.5,0.4,0.9,0.9,0.9h11.5
			c0.5,0,0.9-0.4,0.9-0.9V23.1C13.3,21.8,12.4,20.7,11.1,20.5L11.1,20.5z M4,11.9L4,11.9h5.4h0v8.6H4V11.9z M4.9,3.4l3.6-1.5v8.2
			H4.9V3.4z M11.5,37H1.8v-14c0-0.4,0.3-0.8,0.8-0.8h8.2c0.4,0,0.8,0.3,0.8,0.8L11.5,37L11.5,37z"/>
		<path id="XMLID_1448_" class="st0" d="M41.3,18.5c0-4.2-2.5-8-6.3-9.7c-0.5-0.2-1,0-1.2,0.5c-0.2,0.5,0,1,0.5,1.2
			c3.2,1.4,5.2,4.6,5.2,8c0,4.9-3.9,8.8-8.8,8.8s-8.8-3.9-8.8-8.8c0-3.5,2-6.6,5.2-8c0.5-0.2,0.7-0.7,0.5-1.2
			c-0.2-0.5-0.7-0.7-1.2-0.5c-3.8,1.7-6.3,5.5-6.3,9.7c0,5.8,4.8,10.6,10.6,10.6S41.3,24.4,41.3,18.5L41.3,18.5z"/>
		<path id="XMLID_1452_" class="st0" d="M45.1,31.3h-6c4.2-2.8,6.9-7.5,6.9-12.8c0-8.4-6.9-15.3-15.3-15.3s-15.3,6.9-15.3,15.3
			c0,5.2,2.6,10,6.9,12.8h-6c-0.5,0-0.9,0.4-0.9,0.9c0,3.7,3,6.6,6.6,6.6h17.2c3.7,0,6.6-3,6.6-6.6C46,31.7,45.6,31.3,45.1,31.3
			L45.1,31.3z M17.3,18.5c0-7.4,6-13.5,13.5-13.5s13.5,6,13.5,13.5c0,5.8-3.7,10.9-9.1,12.8h-8.7C20.9,29.4,17.3,24.3,17.3,18.5z
			 M39.4,37H22.1c-2.4,0-4.3-1.7-4.8-4h26.8C43.7,35.3,41.7,37,39.4,37L39.4,37z"/>
		<path id="XMLID_1463_" class="st0" d="M30.6,13.9l-4.5,4.5c-0.4,0.4-0.4,0.9,0,1.3c0.2,0.2,0.4,0.3,0.6,0.3s0.5-0.1,0.6-0.3
			l4.5-4.5c0.4-0.4,0.4-0.9,0-1.3C31.5,13.5,30.9,13.5,30.6,13.9L30.6,13.9z"/>
		<path id="XMLID_1464_" class="st0" d="M28.6,23.6c0.2,0.2,0.4,0.3,0.6,0.3s0.5-0.1,0.6-0.3l5.9-5.9c0.4-0.4,0.4-0.9,0-1.3
			c-0.4-0.4-0.9-0.4-1.3,0l-5.9,5.9C28.3,22.7,28.3,23.2,28.6,23.6L28.6,23.6z"/>
		<path id="XMLID_1466_" class="st0" d="M30.7,9.7c0.2,0,0.5-0.1,0.6-0.3s0.3-0.4,0.3-0.6c0-0.2-0.1-0.5-0.3-0.6
			C31.2,8,31,7.9,30.7,7.9c-0.2,0-0.5,0.1-0.6,0.3s-0.3,0.4-0.3,0.6c0,0.2,0.1,0.5,0.3,0.6C30.3,9.6,30.5,9.7,30.7,9.7z"/>
	</g>
</g>
</svg>
