<?xml version="1.0" encoding="utf-8"?>
<!-- Generator: Adobe Illustrator 23.0.6, SVG Export Plug-In . SVG Version: 6.00 Build 0)  -->
<svg version="1.1" id="Layer_1" xmlns="http://www.w3.org/2000/svg" xmlns:xlink="http://www.w3.org/1999/xlink" x="0px" y="0px"
	 viewBox="0 0 41.8 41.8" style="enable-background:new 0 0 41.8 41.8;" xml:space="preserve">
<style type="text/css">
	.st0{fill:#FFFFFF;}
</style>
<g>
	<g>
		<path class="st0" d="M41.8,8.6c-0.1-2.2-1-4.3-2.7-6c0,0,0,0,0,0v0c-1.7-1.7-3.8-2.6-6-2.7c-2.4-0.1-4.9,0.9-7.2,2.9
			c-4,3.4-6,8.1-8,12.5c-0.4,0.8-0.7,1.6-1.1,2.4c-1.2,2.6-2.4,4.4-3.8,5.6L13,23.3L2.5,33.9c-0.7,0.7-1.1,1.6-1.1,2.6
			c0,0.2,0,0.4,0.1,0.6l-0.8,0.8c-0.4,0.4-0.6,1-0.6,1.6C0,40,0.2,40.6,0.6,41l0.1,0.1c0.4,0.4,1,0.6,1.6,0.6s1.1-0.2,1.6-0.6
			l0.8-0.8c0.2,0,0.4,0.1,0.6,0.1c1,0,1.9-0.4,2.6-1.1l10.6-10.6l-0.1-0.1c1.1-1.3,3-2.6,5.6-3.8c0.8-0.4,1.5-0.7,2.4-1.1
			c4.5-2,9.1-4,12.5-8C40.8,13.6,41.8,11.1,41.8,8.6z M37.7,3.2L15.3,25.6l-0.2-0.2c1.4-1.3,2.8-3,4.5-5.4c0.5-0.7,0.9-1.4,1.4-2.1
			c2.5-3.8,5.2-7.6,8.9-11.1C33.5,3.5,36.3,2.6,37.7,3.2z M18,18.3c0.4-0.8,0.7-1.6,1.1-2.4C21,11.6,23,7.1,26.7,3.9
			c3.4-2.9,6.6-3.1,9-2c-0.3,0-0.5,0.1-0.8,0.2c-1.8,0.6-3.9,1.9-6,3.9c-3.8,3.5-6.5,7.5-9.1,11.3c-0.5,0.7-0.9,1.4-1.4,2
			c-1.6,2.3-3,4-4.3,5.2L14,24.3C15.4,23,16.7,21.1,18,18.3z M3,40.2c-0.4,0.4-1,0.4-1.3,0l-0.1-0.1c-0.2-0.2-0.3-0.4-0.3-0.7
			s0.1-0.5,0.3-0.7l0.4-0.4c0.1,0.2,0.3,0.5,0.5,0.7l0.3,0.3c0.2,0.2,0.4,0.4,0.7,0.5L3,40.2z M7,38.4c-0.5,0.5-1,0.7-1.7,0.7
			s-1.2-0.2-1.7-0.7l-0.3-0.3c-0.5-0.5-0.7-1-0.7-1.7c0-0.6,0.2-1.2,0.7-1.7l9.7-9.7l3.6,3.6L7,38.4z M16.4,26.7l-0.2-0.2L38.6,4.1
			c0.6,1.4-0.3,4.2-3.7,7.9c-3.4,3.7-7.3,6.3-11.1,8.9c-0.7,0.5-1.4,0.9-2.1,1.4C19.4,23.8,17.7,25.3,16.4,26.7z M37.9,15
			c-3.2,3.8-7.7,5.8-12.1,7.7c-0.8,0.3-1.6,0.7-2.4,1.1c-2.7,1.3-4.7,2.6-5.9,4l-0.2-0.2c1.2-1.3,2.9-2.7,5.2-4.3
			c0.7-0.5,1.3-0.9,2-1.4c3.8-2.6,7.8-5.3,11.3-9.1c2-2.2,3.4-4.2,3.9-6c0.1-0.3,0.1-0.5,0.2-0.8C41,8.5,40.8,11.7,37.9,15z"/>
	</g>
</g>
<g>
	<g>
		
			<rect x="5.3" y="33.3" transform="matrix(0.7071 -0.7071 0.7071 0.7071 -21.4388 16.1259)" class="st0" width="6.9" height="1.3"/>
	</g>
</g>
<g>
	<g>
		<rect x="11.8" y="29.7" transform="matrix(0.707 -0.7072 0.7072 0.707 -17.8063 17.636)" class="st0" width="1.3" height="1.3"/>
	</g>
</g>
</svg>
